<svg width="42.22222222222222" height="40" class="nosy-pests-mouse-svg "><path d="M42.22222222222222 40 L 42.22222222222222 40 L 37.77777777777778 37.77777777777778 L 31.11111111111111 35.55555555555556 Q 
                    17.77777777777778 35.55555555555556
                    11.11111111111111 33.333333333333336 A 2.2222222222222223 2.2222222222222223 0 
                    0 1
                    8.88888888888889 31.11111111111111 A 4.444444444444445 4.444444444444445 0 
                    0 1
                    4.444444444444445 26.666666666666664 L 2.2222222222222223 22.22222222222222 L 20 13.333333333333334 L 42.22222222222222 7.777777777777779" fill="lightGrey" stroke="grey"></path><g><ellipse cx="22.22222222222222" cy="20" rx="2.2222222222222223" ry="2.2222222222222223" stroke="black" fill="black"></ellipse><circle cx="23.333333333333332" cy="18.88888888888889" r="0.5555555555555556" stroke="white" fill="white"></circle></g><path d="M42.22222222222222 14.444444444444445 Q 
                    40 15.555555555555557
                    40 17.77777777777778 A 2.2222222222222223 2.2222222222222223 0 
                    0 1
                    35.55555555555556 17.77777777777778 Q 
                    37.111111111111114 13.333333333333334
                    35.55555555555556 8.88888888888889 Q 
                    34.44444444444444 6.666666666666667
                    35.55555555555556 4.444444444444445 Q 
                    37.77777777777778 0.7407407407407408
                    40 2 Q 
                    43.333333333333336 0
                    42.22222222222222 2.2222222222222223" fill="pink" stroke="grey"></path><g><path d="M13.333333333333334 26.666666666666664 A 4.444444444444445 4.444444444444445 
    0 0 0 8.88888888888889 22.22222222222222" stroke="grey" fill="none"></path><line x1="6.666666666666667" y1="26.666666666666664" x2="0.7038187266672278" y2="29.648090636666385" stroke="grey" fill="none" stroke-opacity="0.5"></line><line x1="7.777777777777779" y1="27.777777777777775" x2="1.4923841672306901" y2="34.06317138832486" stroke="grey" fill="none" stroke-opacity="0.5"></line><line x1="8.88888888888889" y1="28.888888888888886" x2="6.077975413183664" y2="37.32162931600456" stroke="grey" fill="none" stroke-opacity="0.5"></line><line x1="10" y1="27.777777777777775" x2="12.179068168202045" y2="38.673118618787996" stroke="grey" fill="none" stroke-opacity="0.5"></line><line x1="11.11111111111111" y1="26.666666666666664" x2="18.5071137274475" y2="37.76067059117125" stroke="grey" fill="none" stroke-opacity="0.5"></line></g><ellipse cx="3.3333333333333335" cy="24.444444444444446" rx="2.2222222222222223" ry="2.4845199749997664" stroke="grey" fill="pink" transform="rotate(-26.56505117707799 3.3333333333333335 24.444444444444446)"></ellipse></svg>